<?xml version="1.0" encoding="UTF-8" standalone="no"?>
<svg
   width="783"
   height="84"
   version="1.1"
   id="svg2542"
   sodipodi:docname="top-bar.svg"
   inkscape:version="1.1.2 (0a00cf5339, 2022-02-04, custom)"
   xmlns:inkscape="http://www.inkscape.org/namespaces/inkscape"
   xmlns:sodipodi="http://sodipodi.sourceforge.net/DTD/sodipodi-0.dtd"
   xmlns="http://www.w3.org/2000/svg"
   xmlns:svg="http://www.w3.org/2000/svg">
  <defs
     id="defs2546" />
  <sodipodi:namedview
     id="namedview2544"
     pagecolor="#ffffff"
     bordercolor="#666666"
     borderopacity="1.0"
     inkscape:pageshadow="2"
     inkscape:pageopacity="0.0"
     inkscape:pagecheckerboard="0"
     showgrid="false"
     inkscape:zoom="2.1519796"
     inkscape:cx="391.5"
     inkscape:cy="41.821958"
     inkscape:window-width="1920"
     inkscape:window-height="1080"
     inkscape:window-x="1920"
     inkscape:window-y="0"
     inkscape:window-maximized="1"
     inkscape:current-layer="svg2542" />
  <path
     style="fill:#6842d6; stroke:none;"
     d="M170 12L171 13L170 12z"
     id="path2288" />
  <path
     style="fill:#b03ab7; stroke:none;"
     d="M96 41L96 42L101 42L102 46L130 44.9252L173 18.6991L196 18L243 18L243 17L223 17L223 16L226 16C226.704 10.6163 243.418 13 248 13L321 13C310.258 8.4925 291.682 12 280 12L206 12C195.346 12 181.228 9.56768 171 12.6489C155.245 17.3949 143.146 33.224 128 39.7755C119.27 43.5517 105.419 41 96 41z"
     id="path2290" />
  <path
     style="fill:#dc4b78; stroke:none;"
     d="M226 16L223 16L223 17L530 18L530 17C526.376 17 505.402 18.2184 508 14L507 16C516.4 10.9806 528.614 13 539 13L605 13C598.548 9.88426 587.183 12 580 12L522 12C452.341 12 382.585 12.8658 313 13C290.667 13.0431 268.333 13 246 13C241.49 13 226.663 10.725 226 16z"
     id="path2292" />
  <path
     style="fill:#b03ab7; stroke:none;"
     d="M322.667 12.3333L323.333 12.6667L322.667 12.3333z"
     id="path2294" />
  <path
     style="fill:#6842d6; stroke:none;"
     d="M605 12L606 13L605 12z"
     id="path2296" />
  <path
     style="fill:#dc4b78; stroke:none;"
     d="M223 13L222 15L221 14L220 16L220 17L225 13L223 13z"
     id="path2298" />
  <path
     style="fill:#f89e7c; stroke:none;"
     d="M498 13L498 17L499 17L498 13M508 13L509 14L508 13M507 16L508 14L507 14L506 17C527.691 17 549.31 18 571 18C580.614 18 593.841 15.6523 603 18.7022C618.984 24.0249 631.279 42.9338 648 45.7755C660.638 47.9233 675.177 46 688 46L768 46L768 41L688 41C676.223 41 661.437 43.4108 650 40.581C634.173 36.665 621.91 20.3366 607 14.0856C600.225 11.2452 590.242 13 583 13L532 13C524.016 13 513.694 11.0338 507 16z"
     id="path2300" />
  <path
     style="fill:#dc4b78; stroke:none;"
     d="M606 13L607 14L606 13z"
     id="path2302" />
  <path
     style="fill:#f89e7c; stroke:none;"
     d="M495 14L496 15L495 14z"
     id="path2304" />
  <path
     style="fill:#dc4b78; stroke:none;"
     d="M513 14L514 15L513 14z"
     id="path2306" />
  <path
     style="fill:#6842d6; stroke:none;"
     d="M608 14L609 15L608 14z"
     id="path2308" />
  <path
     style="fill:#b03ab7; stroke:none;"
     d="M227 15L228 16L227 15z"
     id="path2310" />
  <path
     style="fill:#f89e7c; stroke:none;"
     d="M493 15L495 17L493 15M501 15L500 17L501 15z"
     id="path2312" />
  <path
     style="fill:#dc4b78; stroke:none;"
     d="M511 15L512 16L511 15M609 15L610 16L609 15z"
     id="path2314" />
  <path
     style="fill:#f89e7c; stroke:none;"
     d="M496 16L497 17L496 16M504 16L505 17L504 16z"
     id="path2316" />
  <path
     style="fill:#6842d6; stroke:none;"
     d="M611 16L612 17L611 16z"
     id="path2318" />
  <path
     style="fill:#b03ab7; stroke:none;"
     d="M245 17L246 18L245 17M247 17L248 18L247 17z"
     id="path2320" />
  <path
     style="fill:#dc4b78; stroke:none;"
     d="M531 17L531 18L537 18L531 17M538.667 17.3333L539.333 17.6667L538.667 17.3333M541 17L542 18L541 17M547 17L548 18L547 17M549 17L550 18L549 17M551 17L552 18L551 17M554 17L555 18L554 17M558 17L559 18L558 17M612 17L613 18L612 17z"
     id="path2322" />
  <path
     style="fill:#6842d6; stroke:none;"
     d="M603 18L604 19L603 18M614 18L615 19L614 18M159 19L160 20L159 19M170 19L171 20L170 19z"
     id="path2324" />
  <path
     style="fill:#dc4b78; stroke:none;"
     d="M605 19L606 20L605 19M615 19L616 20L615 19z"
     id="path2326" />
  <path
     style="fill:#6842d6; stroke:none;"
     d="M606 20L607 21L606 20M617 20L618 21L617 20M156 21L157 22L156 21M167 21L168 22L167 21z"
     id="path2328" />
  <path
     style="fill:#dc4b78; stroke:none;"
     d="M608 21L609 22L608 21M618 21L619 22L618 21z"
     id="path2330" />
  <path
     style="fill:#6842d6; stroke:none;"
     d="M155 22L156 23L155 22M165 22L166 23L165 22M609 22L610 23L609 22M620 22L621 23L620 22M153 23L154 24L153 23M164 23L165 24L164 23z"
     id="path2332" />
  <path
     style="fill:#dc4b78; stroke:none;"
     d="M611 23L612 24L611 23M621 23L622 24L621 23z"
     id="path2334" />
  <path
     style="fill:#6842d6; stroke:none;"
     d="M622 23L623 24L622 23M152 24L153 25L152 24M162 24L163 25L162 24M612 24L613 25L612 24z"
     id="path2336" />
  <path
     style="fill:#dc4b78; stroke:none;"
     d="M613 24L614 25L613 24z"
     id="path2338" />
  <path
     style="fill:#b03ab7; stroke:none;"
     d="M623 24L624 25L623 24z"
     id="path2340" />
  <path
     style="fill:#6842d6; stroke:none;"
     d="M150 25L151 26L150 25z"
     id="path2342" />
  <path
     style="fill:#b03ab7; stroke:none;"
     d="M614 25L615 26L614 25z"
     id="path2344" />
  <path
     style="fill:#dc4b78; stroke:none;"
     d="M624 25L625 26L624 25z"
     id="path2346" />
  <path
     style="fill:#6842d6; stroke:none;"
     d="M625 25L626 26L625 25M149 26L150 27L149 26M159 26L160 27L159 26M615 26L616 27L615 26z"
     id="path2348" />
  <path
     style="fill:#dc4b78; stroke:none;"
     d="M616 26L617 27L616 26z"
     id="path2350" />
  <path
     style="fill:#b03ab7; stroke:none;"
     d="M626 26L627 27L626 26z"
     id="path2352" />
  <path
     style="fill:#6842d6; stroke:none;"
     d="M147 27L148 28L147 27M289 27L290 28L289 27M300 27L301 28L300 27M303 27L303 28L308 28L303 27M309 27L310 28L309 27M311 27L312 28L311 27M369 27L370 28L369 27M371 27L372 28L371 27z"
     id="path2354" />
  <path
     style="fill:#b03ab7; stroke:none;"
     d="M617 27L618 28L617 27z"
     id="path2356" />
  <path
     style="fill:#dc4b78; stroke:none;"
     d="M627 27L628 28L627 27z"
     id="path2358" />
  <path
     style="fill:#6842d6; stroke:none;"
     d="M628 27L629 28L628 27M156 28L157 29L156 28z"
     id="path2360" />
  <path
     style="fill:#b03ab7; stroke:none;"
     d="M100 57L100 58C108.725 60.3601 127.731 61.5644 136 57.7222C149.943 51.2438 164.744 33.3299 180 31.1443C198.859 28.4425 219.934 31 239 31L358 31L358 30L226 30L226 29L271 29L246 28L198 28L176 28.8434L133 56.1566L100 57z"
     id="path2362" />
  <path
     style="fill:#dc4b78; stroke:none;"
     d="M226 29L226 30L598 31L598 30L503 30L503 29L573 29L542 28L472 28L226 29z"
     id="path2364" />
  <path
     style="fill:#b03ab7; stroke:none;"
     d="M272 28L273 29L272 28z"
     id="path2366" />
  <path
     style="fill:#f89e7c; stroke:none;"
     d="M503 29L503 30L566 30C575.178 30 587.159 27.9644 596 30.51C612.656 35.3058 625.031 55.2375 642 58.7215C654.656 61.3198 670.075 59 683 59L768 59L768 57L686 57C672.859 57 657.951 58.9765 645 56.7755C627.493 53.8002 614.971 33.3968 598 28.51C588.438 25.7567 576.722 28.7472 567 28.9853C545.694 29.5073 524.313 29 503 29z"
     id="path2368" />
  <path
     style="fill:#6842d6; stroke:none;"
     d="M599 28L600 29L599 28M618 28L619 29L618 28z"
     id="path2370" />
  <path
     style="fill:#dc4b78; stroke:none;"
     d="M619 28L620 29L619 28M629 28L630 29L629 28z"
     id="path2372" />
  <path
     style="fill:#6842d6; stroke:none;"
     d="M144 29L145 30L144 29M154 29L155 30L154 29M174 29L175 30L174 29z"
     id="path2374" />
  <path
     style="fill:#dc4b78; stroke:none;"
     d="M208 29L209 30L208 29M214.667 29.3333L215.333 29.6667L214.667 29.3333M217 29L218 30L217 29M219.667 29.3333L220.333 29.6667L219.667 29.3333M222 29L223 30L222 29M224 29L225 30L224 29z"
     id="path2376" />
  <path
     style="fill:#f89e7c; stroke:none;"
     d="M496 29L497 30L496 29M498 29L498 30L502 30L498 29z"
     id="path2378" />
  <path
     style="fill:#dc4b78; stroke:none;"
     d="M600 29L601 30L600 29z"
     id="path2380" />
  <path
     style="fill:#6842d6; stroke:none;"
     d="M601 29L602 30L601 29M620 29L621 30L620 29M631 29L632 30L631 29M142 30L143 31L142 30M153 30L154 31L153 30z"
     id="path2382" />
  <path
     style="fill:#b03ab7; stroke:none;"
     d="M359.667 30.3333L360.333 30.6667L359.667 30.3333M363 30L364 31L363 30M366.667 30.3333L367.333 30.6667L366.667 30.3333M369 30L369 31L372 31L369 30M373 30L374 31L373 30M380 30L381 31L380 30M602 30L603 31L602 30z"
     id="path2384" />
  <path
     style="fill:#dc4b78; stroke:none;"
     d="M622 30L623 31L622 30M632 30L633 31L632 30z"
     id="path2386" />
  <path
     style="fill:#6842d6; stroke:none;"
     d="M633 30L634 31L633 30M141 31L142 32L141 31M151 31L152 32L151 31M171 31L172 32L171 31M176 31L177 32L176 31M598 31L599 32L598 31z"
     id="path2388" />
  <path
     style="fill:#dc4b78; stroke:none;"
     d="M603 31L604 32L603 31z"
     id="path2390" />
  <path
     style="fill:#6842d6; stroke:none;"
     d="M604 31L605 32L604 31M623 31L624 32L623 31M634 31L635 32L634 31M139 32L140 33L139 32M175 32L176 33L175 32z"
     id="path2392" />
  <path
     style="fill:#dc4b78; stroke:none;"
     d="M600 32L601 33L600 32z"
     id="path2394" />
  <path
     style="fill:#b03ab7; stroke:none;"
     d="M605 32L606 33L605 32z"
     id="path2396" />
  <path
     style="fill:#dc4b78; stroke:none;"
     d="M625 32L626 33L625 32M635 32L636 33L635 32z"
     id="path2398" />
  <path
     style="fill:#6842d6; stroke:none;"
     d="M138 33L139 34L138 33M148 33L149 34L148 33M168 33L169 34L168 33M601 33L602 34L601 33z"
     id="path2400" />
  <path
     style="fill:#dc4b78; stroke:none;"
     d="M606 33L607 34L606 33z"
     id="path2402" />
  <path
     style="fill:#6842d6; stroke:none;"
     d="M607 33L608 34L607 33M626 33L627 34L626 33z"
     id="path2404" />
  <path
     style="fill:#dc4b78; stroke:none;"
     d="M637 33L638 34L637 33z"
     id="path2406" />
  <path
     style="fill:#6842d6; stroke:none;"
     d="M136 34L137 35L136 34z"
     id="path2408" />
  <path
     style="fill:#dc4b78; stroke:none;"
     d="M603 34L604 35L603 34M608 34L609 35L608 34M628 34L629 35L628 34z"
     id="path2410" />
  <path
     style="fill:#6842d6; stroke:none;"
     d="M135 35L136 36L135 35M145 35L146 36L145 35M604 35L605 36L604 35M610 35L611 36L610 35M629 35L630 36L629 35z"
     id="path2412" />
  <path
     style="fill:#dc4b78; stroke:none;"
     d="M640 35L641 36L640 35z"
     id="path2414" />
  <path
     style="fill:#6842d6; stroke:none;"
     d="M133 36L134 37L133 36z"
     id="path2416" />
  <path
     style="fill:#dc4b78; stroke:none;"
     d="M606 36L607 37L606 36M611 36L612 37L611 36M631 36L632 37L631 36z"
     id="path2418" />
  <path
     style="fill:#6842d6; stroke:none;"
     d="M642 36L643 37L642 36M132 37L133 38L132 37M142 37L143 38L142 37M162 37L163 38L162 37M607 37L608 38L607 37M613 37L614 38L613 37z"
     id="path2420" />
  <path
     style="fill:#dc4b78; stroke:none;"
     d="M643 37L644 38L643 37z"
     id="path2422" />
  <path
     style="fill:#6842d6; stroke:none;"
     d="M130 38L131 39L130 38M160 38L161 39L160 38z"
     id="path2424" />
  <path
     style="fill:#dc4b78; stroke:none;"
     d="M609 38L610 39L609 38M614 38L615 39L614 38z"
     id="path2426" />
  <path
     style="fill:#b03ab7; stroke:none;"
     d="M634 38L635 39L634 38z"
     id="path2428" />
  <path
     style="fill:#6842d6; stroke:none;"
     d="M645 38L646 39L645 38M139 39L140 40L139 39M159 39L160 40L159 39M164 39L165 40L164 39M610 39L611 40L610 39M616 39L617 40L616 39z"
     id="path2430" />
  <path
     style="fill:#b03ab7; stroke:none;"
     d="M646 39L647 40L646 39z"
     id="path2432" />
  <path
     style="fill:#6842d6; stroke:none;"
     d="M127 40L128 41L127 40M137 40L138 41L137 40M157 40L158 41L157 40z"
     id="path2434" />
  <path
     style="fill:#dc4b78; stroke:none;"
     d="M612 40L613 41L612 40M617 40L618 41L617 40z"
     id="path2436" />
  <path
     style="fill:#b03ab7; stroke:none;"
     d="M637 40L638 41L637 40z"
     id="path2438" />
  <path
     style="fill:#6842d6; stroke:none;"
     d="M648 40L649 41L648 40M5 41L5 47L129 47L129 46L102 46L101 42L5 41M136 41L137 42L136 41M161 41L162 42L161 41M613 41L614 42L613 41M619 41L620 42L619 41M638 41L639 42L638 41z"
     id="path2440" />
  <path
     style="fill:#dc4b78; stroke:none;"
     d="M639 41L640 42L639 41z"
     id="path2442" />
  <path
     style="fill:#6842d6; stroke:none;"
     d="M102 42L103 43L102 42M134 42L135 43L134 42M154 42L155 43L154 42z"
     id="path2444" />
  <path
     style="fill:#b03ab7; stroke:none;"
     d="M615 42L616 43L615 42z"
     id="path2446" />
  <path
     style="fill:#dc4b78; stroke:none;"
     d="M620 42L621 43L620 42z"
     id="path2448" />
  <path
     style="fill:#b03ab7; stroke:none;"
     d="M640 42L641 43L640 42z"
     id="path2450" />
  <path
     style="fill:#6842d6; stroke:none;"
     d="M104 43L105 44L104 43M132.667 43.3333L133.333 43.6667L132.667 43.3333M153 43L154 44L153 43M158 43L159 44L158 43M176 47L176 48L185 49L186 49L203 48L222 48L309 47L345 47L372 48L400 47L418 46C432.937 50.4152 452.726 46.8382 468.329 46.6698C509.248 46.2279 552.31 42.0944 593 46C587.138 40.5073 574.593 43 567 43L497 43L267 43L207 43C196.243 43 185.507 41.3622 176 47M616 43L617 44L616 43z"
     id="path2452" />
  <path
     style="fill:#dc4b78; stroke:none;"
     d="M617 43L618 44L617 43z"
     id="path2454" />
  <path
     style="fill:#6842d6; stroke:none;"
     d="M622 43L623 44L622 43M641 43L642 44L641 43z"
     id="path2456" />
  <path
     style="fill:#dc4b78; stroke:none;"
     d="M642 43L643 44L642 43z"
     id="path2458" />
  <path
     style="fill:#b03ab7; stroke:none;"
     d="M99.3333 44.6667L99.6667 45.3333L99.3333 44.6667z"
     id="path2460" />
  <path
     style="fill:#6842d6; stroke:none;"
     d="M131 44L132 45L131 44M151 44L152 45L151 44z"
     id="path2462" />
  <path
     style="fill:#b03ab7; stroke:none;"
     d="M618 44L619 45L618 44z"
     id="path2464" />
  <path
     style="fill:#dc4b78; stroke:none;"
     d="M623 44L624 45L623 44z"
     id="path2466" />
  <path
     style="fill:#6842d6; stroke:none;"
     d="M624 44L625 45L624 44M643 44L644 45L643 44M129.667 45.3333L130.333 45.6667L129.667 45.3333M155 45L156 46L155 45M619 45L620 46L619 45z"
     id="path2468" />
  <path
     style="fill:#dc4b78; stroke:none;"
     d="M620 45L621 46L620 45z"
     id="path2470" />
  <path
     style="fill:#6842d6; stroke:none;"
     d="M625 45L626 46L625 45z"
     id="path2472" />
  <path
     style="fill:#dc4b78; stroke:none;"
     d="M645 45L646 46L645 45z"
     id="path2474" />
  <path
     style="fill:#6842d6; stroke:none;"
     d="M148 46L149 47L148 46M153 46L154 47L153 46z"
     id="path2476" />
  <path
     style="fill:#b03ab7; stroke:none;"
     d="M621 46L622 47L621 46z"
     id="path2478" />
  <path
     style="fill:#dc4b78; stroke:none;"
     d="M626 46L627 47L626 46z"
     id="path2480" />
  <path
     style="fill:#6842d6; stroke:none;"
     d="M627 46L628 47L627 46M646 46L647 47L646 46z"
     id="path2482" />
  <path
     style="fill:#dc4b78; stroke:none;"
     d="M647 46L647 47L767 47L731 46L647 46z"
     id="path2484" />
  <path
     style="fill:#6842d6; stroke:none;"
     d="M767 46L768 47L767 46M146 47L147 48L146 47M152 47L153 48L152 47z"
     id="path2486" />
  <path
     style="fill:#dc4b78; stroke:none;"
     d="M623 47L624 48L623 47z"
     id="path2488" />
  <path
     style="fill:#b03ab7; stroke:none;"
     d="M628 47L629 48L628 47z"
     id="path2490" />
  <path
     style="fill:#6842d6; stroke:none;"
     d="M145 48L146 49L145 48M150 48L151 49L150 48M624 48L625 49L624 48z"
     id="path2492" />
  <path
     style="fill:#dc4b78; stroke:none;"
     d="M629 48L630 49L629 48z"
     id="path2494" />
  <path
     style="fill:#6842d6; stroke:none;"
     d="M630 48L631 49L630 48M143 49L144 50L143 49M149 49L150 50L149 49z"
     id="path2496" />
  <path
     style="fill:#dc4b78; stroke:none;"
     d="M626 49L627 50L626 49z"
     id="path2498" />
  <path
     style="fill:#b03ab7; stroke:none;"
     d="M631 49L632 50L631 49z"
     id="path2500" />
  <path
     style="fill:#6842d6; stroke:none;"
     d="M142 50L143 51L142 50M147 50L148 51L147 50M627 50L628 51L627 50M633 50L634 51L633 50M140 51L141 52L140 51M145 51L146 52L145 51z"
     id="path2502" />
  <path
     style="fill:#b03ab7; stroke:none;"
     d="M629 51L630 52L629 51z"
     id="path2504" />
  <path
     style="fill:#dc4b78; stroke:none;"
     d="M634 51L635 52L634 51z"
     id="path2506" />
  <path
     style="fill:#6842d6; stroke:none;"
     d="M139 52L140 53L139 52M144 52L145 53L144 52M630 52L631 53L630 52z"
     id="path2508" />
  <path
     style="fill:#dc4b78; stroke:none;"
     d="M631 52L632 53L631 52z"
     id="path2510" />
  <path
     style="fill:#6842d6; stroke:none;"
     d="M636 52L637 53L636 52M137 53L138 54L137 53M142 53L143 54L142 53z"
     id="path2512" />
  <path
     style="fill:#b03ab7; stroke:none;"
     d="M632 53L633 54L632 53z"
     id="path2514" />
  <path
     style="fill:#dc4b78; stroke:none;"
     d="M637 53L638 54L637 53z"
     id="path2516" />
  <path
     style="fill:#6842d6; stroke:none;"
     d="M136 54L137 55L136 54M141 54L142 55L141 54M633 54L634 55L633 54z"
     id="path2518" />
  <path
     style="fill:#dc4b78; stroke:none;"
     d="M634 54L635 55L634 54z"
     id="path2520" />
  <path
     style="fill:#6842d6; stroke:none;"
     d="M639 54L640 55L639 54M134 55L135 56L134 55M139 55L140 56L139 55z"
     id="path2522" />
  <path
     style="fill:#b03ab7; stroke:none;"
     d="M635 55L636 56L635 55z"
     id="path2524" />
  <path
     style="fill:#dc4b78; stroke:none;"
     d="M640 55L641 56L640 55z"
     id="path2526" />
  <path
     style="fill:#6842d6; stroke:none;"
     d="M5 56L5 60L134 60L134 59L100 58L100 57L134 57C123.734 52.6923 106.158 56 95 56L5 56M138 56L139 57L138 56z"
     id="path2528" />
  <path
     style="fill:#dc4b78; stroke:none;"
     d="M642 56L642 57L767 57C756.973 52.7923 739.896 56 729 56L642 56z"
     id="path2530" />
  <path
     style="fill:#6842d6; stroke:none;"
     d="M767 56L768 57L767 56M136 57L137 58L136 57z"
     id="path2532" />
  <path
     style="fill:#b03ab7; stroke:none;"
     d="M638 57L639 58L638 57M97 58L98 59L97 58z"
     id="path2534" />
  <path
     style="fill:#6842d6; stroke:none;"
     d="M135 58L136 59L135 58M641 59L642 60L641 59z"
     id="path2536" />
  <path
     style="fill:#b03ab7; stroke:none;"
     d="M642 59L643 60L642 59z"
     id="path2538" />
  <path
     style="fill:#6842d6; stroke:none;"
     d="M643 59L643 60L768 60C757.973 55.7923 740.896 59 730 59L643 59z"
     id="path2540" />
</svg>
